<svg width="61" height="61" viewBox="0 0 61 61" fill="none" xmlns="http://www.w3.org/2000/svg">
<g id="at-sign_svgrepo.com">
<path id="Vector" d="M43.5296 48.8291C39.7686 51.6546 35.0936 53.3291 30.0273 53.3291C17.6009 53.3291 7.52734 43.2556 7.52734 30.8291C7.52734 18.4027 17.6009 8.3291 30.0273 8.3291C42.4538 8.3291 52.5273 18.4027 52.5273 30.8291V34.5791C52.5273 38.0309 49.7291 40.8291 46.2773 40.8291C42.8256 40.8291 40.0273 38.0309 40.0273 34.5791V20.8291M40.0273 30.8291C40.0273 36.3519 35.5501 40.8291 30.0273 40.8291C24.5045 40.8291 20.0273 36.3519 20.0273 30.8291C20.0273 25.3063 24.5045 20.8291 30.0273 20.8291C35.5501 20.8291 40.0273 25.3063 40.0273 30.8291Z" stroke="black" stroke-width="5" stroke-linecap="round" stroke-linejoin="round"/>
</g>
</svg>
